<svg viewBox="0 0 24 24" fill="none" stroke="currentColor" stroke-width="2.2"
     stroke-linecap="round" stroke-linejoin="round"
     xmlns="http://www.w3.org/2000/svg">

  <!-- Wand -->
  <path d="M5 19L15 9"/>

  <!-- Sparkles -->
  <path d="M17 4l1 2 2 1-2 1-1 2-1-2-2-1 2-1 1-2z"/>
  <path d="M19 10l.7 1.3 1.3.7-1.3.7-.7 1.3-.7-1.3-1.3-.7 1.3-.7.7-1.3z"/>

  <path d="M4 7l.8 1.2 1.2 .8-1.2 .8-.8 1.2-.8-1.2-1.2-.8 1.2-.8.8-1.2z" />
  
  <path d="M9 4l1 1.5 1.5 1-1.5 1-1 1.5-1-1.5-1.5-1 1.5-1 1-1.5z" />

  <path d="M17 17l.8 1.2 1.2 .8-1.2 .8-.8 1.2-.8-1.2-1.2-.8 1.2-.8.8-1.2z" />

  
</svg>

